<svg width="61" height="61" viewBox="0 0 61 61" fill="none" xmlns="http://www.w3.org/2000/svg">
<g clip-path="url(#clip0)">
<rect width="59.7766" height="59.7766" transform="translate(0.918701 0.456848)" fill="#E53170"/>
<rect width="59.7766" height="59.7766" transform="translate(0.918701 0.456848)" fill="url(#paint0_linear)"/>
<path d="M51.8223 30.3452C52.0091 32.4 50.6081 34.0812 48.6467 34.0812H12.9675C11.0061 34.0812 9.60504 32.4 9.79184 30.3452L11.7533 9.61015C11.9401 7.55533 13.7147 5.87411 15.6761 5.87411H45.938C47.8995 5.87411 49.6741 7.55533 49.8609 9.61015L51.8223 30.3452Z" fill="#B4D7EE"/>
<path d="M9.23145 28.9442H14.8355V36.4162H9.23145V28.9442Z" fill="#3E4347"/>
<path d="M46.7786 28.9442H52.3826V36.4162H46.7786V28.9442Z" fill="#3E4347"/>
<path d="M14.5554 47.998H20.1595V57.4315H14.5554V47.998Z" fill="#3E4347"/>
<path d="M41.4548 47.998H47.0589V57.4315H41.4548V47.998Z" fill="#3E4347"/>
<path d="M39.5869 23.8071C39.3067 26.2355 37.3452 28.2903 35.3838 28.2903H26.2305C24.1757 28.2903 22.3077 26.3289 22.0275 23.8071L20.3462 10.1705C20.066 7.74212 21.4671 5.6873 23.4285 5.6873H38.0924C40.1473 5.6873 41.5483 7.74212 41.1747 10.1705L39.5869 23.8071Z" fill="#428BC1"/>
<path d="M22.4009 55.4701C22.2141 55.003 21.6537 54.536 21.1867 54.536H13.7146C13.1542 54.536 12.6872 54.9096 12.5004 55.4701L11.0994 59.2995C10.9126 59.7665 11.1928 60.2335 11.7532 60.2335H22.9613C23.5217 60.2335 23.8019 59.8599 23.6151 59.2995L22.4009 55.4701Z" fill="#94989B"/>
<path d="M50.5145 59.2995L49.2069 55.4701C49.0201 55.003 48.4597 54.536 47.9927 54.536H40.5206C39.9602 54.536 39.4932 54.9096 39.3064 55.4701L37.9988 59.2995C37.812 59.7665 38.0922 60.2335 38.6526 60.2335H49.8607C50.3277 60.2335 50.6079 59.8599 50.5145 59.2995Z" fill="#94989B"/>
<path d="M44.07 6.06091C44.07 8.11573 42.4822 9.79695 40.5207 9.79695H20.9999C19.0385 9.79695 17.4507 8.11573 17.4507 6.06091V4.19289C17.4507 2.13807 19.0385 0.456848 20.9999 0.456848H40.5207C42.4822 0.456848 44.07 2.13807 44.07 4.19289V6.06091Z" fill="#29ABE2"/>
<path d="M15.3959 27.7299L15.1157 25.7685C14.9289 24.7411 14.0883 23.9005 13.1543 23.9005H10.6325C9.69845 23.9005 8.85784 24.7411 8.67104 25.7685L8.39084 27.7299C8.20403 28.7574 8.85784 29.598 9.79185 29.598H13.9949C14.9289 29.598 15.5827 28.7574 15.3959 27.7299Z" fill="#29ABE2"/>
<path d="M53.0365 27.7299L52.7563 25.7685C52.5695 24.7411 51.7289 23.9005 50.7949 23.9005H48.2731C47.3391 23.9005 46.4985 24.7411 46.3117 25.7685L46.0315 27.7299C45.8447 28.7574 46.4985 29.598 47.4325 29.598H51.6355C52.5695 29.598 53.1299 28.7574 53.0365 27.7299Z" fill="#29ABE2"/>
<path d="M49.0202 34.0812H12.5938C9.69839 34.0812 7.92377 36.8832 8.48418 40.3391L8.85778 42.7675C9.41819 46.2233 12.3136 49.0254 15.1157 49.0254H46.3116C49.207 49.0254 52.009 46.2233 52.5695 42.7675L53.0365 40.3391C53.6903 36.9766 51.8223 34.0812 49.0202 34.0812Z" fill="#29ABE2"/>
</g>
<defs>
<linearGradient id="paint0_linear" x1="29.8883" y1="0" x2="29.8883" y2="59.7766" gradientUnits="userSpaceOnUse">
<stop stop-color="white"/>
<stop offset="1" stop-color="white" stop-opacity="0"/>
</linearGradient>
<clipPath id="clip0">
<rect width="59.7766" height="59.7766" fill="white" transform="translate(0.918701 0.456848)"/>
</clipPath>
</defs>
</svg>
